# xmcd
#
# Track frame offsets:
#	150
#	18636
#	30360
#	46556
#	62675
#	79319
#	93654
#	108962
#	123988
#	137744
#
# Disc length: 2020 seconds
#
# Revision: 1
# Processed by: cddbd v1.4b41PL2 Copyright (c) Steve Scherf et al.
# Submitted via: audiograbber 1.80
#
DISCID=7907e20a
DTITLE=Loretta Lynn - Still Country
DYEAR=1900
DGENRE=
TTITLE0=On My Own Again
TTITLE1=God's Country
TTITLE2=Table For Two
TTITLE3=Working Girl
TTITLE4=I Can't Hear The Music
TTITLE5=Country In My Genes
TTITLE6=Hold Her
TTITLE7=Don't Open That Door
TTITLE8=Somewhere Someone's Falling In Love
TTITLE9=The Blues Ain't Workin' On Me
EXTD=
EXTT0=
EXTT1=
EXTT2=
EXTT3=
EXTT4=
EXTT5=
EXTT6=
EXTT7=
EXTT8=
EXTT9=
PLAYORDER=
